<svg width="145" height="24" viewBox="0 0 145 24" fill="none" xmlns="http://www.w3.org/2000/svg">
<path fill-rule="evenodd" clip-rule="evenodd" d="M42.9298 14.2797C42.6213 13.9649 42.218 13.7079 41.752 13.5292C41.286 13.3504 40.7702 13.2548 40.2456 13.25C39.7444 13.2457 39.2474 13.3177 38.7852 13.4616C38.3231 13.6054 37.9056 13.818 37.5586 14.0863C37.2117 14.3545 36.9426 14.6727 36.768 15.0212C36.5934 15.3696 36.517 15.7409 36.5436 16.1121C36.517 16.4833 36.5934 16.8546 36.768 17.2031C36.9426 17.5515 37.2117 17.8697 37.5586 18.138C37.9056 18.4062 38.3231 18.6189 38.7852 18.7627C39.2474 18.9065 39.7444 18.9785 40.2456 18.9742C41.13 18.9708 41.9873 18.7477 42.6807 18.3406C42.6966 18.33 42.7093 18.3171 42.7179 18.3026C42.7266 18.2881 42.731 18.2724 42.7308 18.2566V17.3638C42.7304 17.3369 42.7157 17.3113 42.69 17.2924C42.6642 17.2735 42.6295 17.263 42.5933 17.263H39.8265C39.7743 17.2623 39.7245 17.2465 39.6879 17.2189C39.6513 17.1913 39.6307 17.1541 39.6308 17.1154V15.7953C39.6308 15.7759 39.6359 15.7567 39.6459 15.7388C39.6559 15.7209 39.6706 15.7046 39.689 15.6909C39.7075 15.6772 39.7295 15.6664 39.7536 15.6589C39.7778 15.6515 39.8036 15.6477 39.8298 15.6477H44.7905V13.6796L43.1887 14.3289C43.1448 14.3452 43.0944 14.3491 43.0469 14.3401C42.9993 14.3311 42.9578 14.3096 42.9298 14.2797ZM19.647 15.2097H22.6014C22.7754 15.2267 22.9522 15.2156 23.1198 15.1771C23.2874 15.1387 23.4418 15.0738 23.5725 14.9869C23.7031 14.9001 23.8068 14.7933 23.8766 14.6739C23.9464 14.5545 23.9805 14.4254 23.9767 14.2953C23.9776 14.1658 23.9415 14.0377 23.8708 13.9193C23.8 13.801 23.6962 13.6951 23.5663 13.6087C23.4363 13.5223 23.2831 13.4573 23.1168 13.418C22.9505 13.3787 22.7748 13.3661 22.6014 13.3808H19.647C19.5985 13.3808 19.552 13.3951 19.5177 13.4205C19.4834 13.446 19.4641 13.4805 19.4641 13.5164V15.0765C19.4646 15.1122 19.484 15.1464 19.5183 15.1716C19.5525 15.1968 19.5988 15.2109 19.647 15.2109V15.2097ZM31.6589 20.3423C31.6589 20.358 31.6547 20.3736 31.6466 20.3882C31.6385 20.4028 31.6266 20.416 31.6115 20.4271C31.5965 20.4383 31.5787 20.4471 31.559 20.4531C31.5394 20.4592 31.5184 20.4623 31.4971 20.4623H29.3193C29.2981 20.4623 29.277 20.4592 29.2574 20.4531C29.2378 20.4471 29.2199 20.4383 29.2049 20.4271C29.1899 20.416 29.178 20.4028 29.1698 20.3882C29.1617 20.3736 29.1575 20.358 29.1575 20.3423V11.87C29.1575 11.8381 29.1746 11.8076 29.2049 11.7851C29.2352 11.7626 29.2764 11.75 29.3193 11.75H31.4939C31.5368 11.75 31.5779 11.7626 31.6083 11.7851C31.6386 11.8076 31.6557 11.8381 31.6557 11.87L31.6589 20.3423ZM44.1611 0.055562L22.5917 11.7488H23.1483C23.5717 11.7129 24.0006 11.7435 24.407 11.8385C24.8135 11.9336 25.1885 12.0909 25.5076 12.3004C25.8268 12.5098 26.083 12.7667 26.2597 13.0543C26.4364 13.342 26.5295 13.654 26.5331 13.97C26.555 14.3555 26.4253 14.7373 26.1598 15.069C25.8944 15.4007 25.5047 15.6681 25.0381 15.8385C25.0075 15.8496 24.9818 15.867 24.9641 15.8886C24.9463 15.9102 24.9374 15.9352 24.9382 15.9604C24.9391 15.9857 24.9497 16.0103 24.9689 16.0312C24.988 16.0522 25.0148 16.0686 25.0462 16.0785C25.5678 16.2528 26.0085 16.5372 26.3136 16.8962C26.6186 17.2552 26.7743 17.6728 26.7613 18.097C26.778 18.4257 26.6991 18.7533 26.53 19.0574C26.3608 19.3615 26.1054 19.635 25.7811 19.8594C25.4567 20.0838 25.0711 20.2538 24.6503 20.3578C24.2295 20.4619 23.7834 20.4975 23.3425 20.4623H17.1407C17.0923 20.462 17.0461 20.4476 17.0119 20.4222C16.9777 20.3968 16.9583 20.3625 16.9579 20.3267V14.8005L0.960811 23.4732C0.894023 23.5095 0.844394 23.5605 0.818998 23.619C0.793602 23.6774 0.793736 23.7403 0.819382 23.7987C0.845028 23.8571 0.894876 23.908 0.961819 23.9441C1.02876 23.9803 1.10938 23.9998 1.19218 24H44.3925C44.4968 24 44.5968 23.9693 44.6705 23.9146C44.7442 23.8599 44.7857 23.7857 44.7857 23.7084V19.3198C43.5563 20.1735 41.9278 20.6395 40.244 20.6195C39.4259 20.65 38.6081 20.5555 37.8413 20.3418C37.0745 20.1281 36.3752 19.7997 35.7866 19.3772C35.1981 18.9546 34.7329 18.4469 34.4201 17.8854C34.1072 17.3239 33.9532 16.7208 33.9678 16.1133C33.9511 15.5052 34.1036 14.9011 34.4158 14.3387C34.728 13.7763 35.1932 13.2677 35.7823 12.8446C36.3714 12.4215 37.0718 12.093 37.8397 11.8797C38.6077 11.6664 39.4267 11.5728 40.2456 11.6048C41.1223 11.585 41.9925 11.7218 42.783 12.0038C43.5734 12.2857 44.2608 12.7045 44.7873 13.2248V0.29077C44.7868 0.236996 44.7663 0.184364 44.7281 0.138645C44.69 0.0929267 44.6356 0.0558881 44.5709 0.0315914C44.5062 0.00729467 44.4337 -0.00332166 44.3615 0.000906695C44.2892 0.00513505 44.2199 0.0240448 44.1611 0.055562ZM19.647 18.8314H22.7082C23.6418 18.8314 24.2048 18.4714 24.2048 17.8378C24.2056 17.697 24.1662 17.5577 24.0891 17.4291C24.012 17.3004 23.899 17.1854 23.7576 17.0915C23.6162 16.9976 23.4495 16.927 23.2687 16.8844C23.0878 16.8417 22.8968 16.828 22.7082 16.8441H19.647C19.5983 16.8445 19.5518 16.859 19.5176 16.8846C19.4833 16.9103 19.4641 16.9449 19.4641 16.981V18.6958C19.4646 18.7317 19.484 18.766 19.5182 18.7914C19.5523 18.8167 19.5986 18.8311 19.647 18.8314ZM57.3235 18.5662L55.9724 18.0478C55.9294 18.0326 55.8803 18.0295 55.8344 18.0392C55.7885 18.049 55.749 18.0708 55.7233 18.1006C55.426 18.4469 55.0181 18.7335 54.5358 18.9348C54.0534 19.1362 53.5115 19.2462 52.9581 19.255C52.4179 19.2498 51.8847 19.1628 51.3913 18.9995C50.8979 18.8362 50.4546 18.5999 50.0886 18.3052C49.7225 18.0104 49.4414 17.6634 49.2623 17.2852C49.0833 16.9071 49.0102 16.5059 49.0474 16.1061C49.008 15.7059 49.0798 15.3039 49.2582 14.9251C49.4367 14.5463 49.718 14.1986 50.0849 13.9037C50.4518 13.6087 50.8964 13.3728 51.3911 13.2104C51.8859 13.048 52.4203 12.9627 52.9614 12.9596C53.515 12.9663 54.0577 13.0751 54.5404 13.2762C55.0232 13.4773 55.4308 13.7645 55.7265 14.1117C55.7518 14.1422 55.7917 14.1645 55.8382 14.1741C55.8847 14.1836 55.9344 14.1798 55.9773 14.1633L57.3154 13.6232C57.3396 13.6138 57.3609 13.6007 57.378 13.5849C57.3951 13.569 57.4076 13.5507 57.4148 13.5311C57.4219 13.5115 57.4235 13.4911 57.4195 13.471C57.4155 13.4509 57.4059 13.4316 57.3914 13.4144C56.9351 12.8487 56.2846 12.3828 55.5064 12.0643C54.7282 11.7457 53.85 11.5859 52.9614 11.6012C52.1636 11.5865 51.3703 11.6939 50.6309 11.9165C49.8915 12.1392 49.2218 12.4724 48.6635 12.8953C48.1053 13.3182 47.6704 13.8219 47.386 14.3749C47.1016 14.9279 46.9737 15.5185 47.0104 16.1097C46.9754 16.7007 47.1044 17.2907 47.3894 17.8431C47.6744 18.3956 48.1094 18.8987 48.6673 19.3214C49.2252 19.7441 49.8942 20.0773 50.6329 20.3004C51.3715 20.5235 52.164 20.6317 52.9614 20.6183C53.8532 20.6266 54.7323 20.4614 55.5113 20.1393C56.2903 19.8171 56.9418 19.3492 57.4011 18.7822C57.4175 18.7648 57.4286 18.7448 57.4335 18.7239C57.4385 18.7029 57.4372 18.6814 57.4298 18.6609C57.4225 18.6403 57.4091 18.6212 57.3907 18.6048C57.3724 18.5885 57.3494 18.5753 57.3235 18.5662ZM64.352 19.255C63.8188 19.2482 63.2932 19.1592 62.8088 18.9937C62.3244 18.8283 61.8916 18.5899 61.5379 18.2939C61.1842 17.9978 60.9173 17.6504 60.7542 17.2738C60.591 16.8972 60.5352 16.4996 60.5902 16.1061C60.5247 15.7111 60.5731 15.3102 60.7322 14.9301C60.8913 14.5499 61.1574 14.1992 61.513 13.9011C61.8685 13.6029 62.3054 13.3642 62.7947 13.2007C63.284 13.0372 63.8145 12.9527 64.3512 12.9527C64.8879 12.9527 65.4184 13.0372 65.9077 13.2007C66.397 13.3642 66.8339 13.6029 67.1894 13.9011C67.545 14.1992 67.8111 14.5499 67.9702 14.9301C68.1293 15.3102 68.1777 15.7111 68.1122 16.1061C68.1657 16.4993 68.1089 16.8964 67.9453 17.2724C67.7817 17.6485 67.5148 17.9953 67.1616 18.2912C66.8084 18.587 66.3764 18.8253 65.8928 18.9912C65.4093 19.1571 64.8847 19.2469 64.352 19.255ZM62.7453 11.75C61.4838 12.0159 60.3814 12.5918 59.6189 13.3832C58.8564 14.1747 58.4789 15.1347 58.5483 16.1061C58.501 16.6901 58.6167 17.275 58.888 17.8243C59.1593 18.3736 59.5805 18.8755 60.1252 19.2986C60.6699 19.7218 61.3263 20.057 62.0536 20.2835C62.7809 20.5099 63.5633 20.6227 64.352 20.6147C65.6924 20.6373 66.9995 20.304 68.0378 19.675C69.0762 19.0459 69.7773 18.1624 70.015 17.1838C70.2543 16.4382 70.2332 15.6597 69.9537 14.9219C69.6742 14.1841 69.1455 13.5113 68.4177 12.9673C67.6899 12.4233 66.787 12.026 65.7944 11.813C64.8018 11.5999 63.7524 11.5783 62.7453 11.75ZM84.2743 11.7416H81.6985C81.6426 11.7414 81.5879 11.7538 81.5417 11.7772C81.4955 11.8005 81.4599 11.8337 81.4396 11.8724L78.3185 17.8534L75.1796 11.8712C75.1589 11.8328 75.1231 11.8 75.077 11.7769C75.0308 11.7538 74.9764 11.7415 74.9207 11.7416H72.3352C72.2987 11.7416 72.2637 11.7523 72.2379 11.7714C72.2121 11.7906 72.1976 11.8165 72.1976 11.8436V20.3555C72.1976 20.3825 72.2121 20.4085 72.2379 20.4276C72.2637 20.4467 72.2987 20.4575 72.3352 20.4575H74.115C74.1514 20.4575 74.1864 20.4467 74.2122 20.4276C74.238 20.4085 74.2525 20.3825 74.2525 20.3555V13.7276L77.8412 20.4119C77.8488 20.4254 77.8616 20.4369 77.878 20.445C77.8944 20.4531 77.9137 20.4574 77.9334 20.4575H78.6809C78.7006 20.4574 78.7199 20.4531 78.7363 20.445C78.7527 20.4369 78.7655 20.4254 78.7731 20.4119L82.3457 13.7276V20.3555C82.3457 20.3825 82.3602 20.4085 82.3859 20.4276C82.4117 20.4467 82.4467 20.4575 82.4832 20.4575H84.263C84.2995 20.4575 84.3344 20.4467 84.3602 20.4276C84.386 20.4085 84.4005 20.3825 84.4005 20.3555V11.8436C84.4006 11.8179 84.3877 11.7932 84.3643 11.7743C84.3409 11.7554 84.3088 11.7437 84.2743 11.7416ZM110.648 11.7416H103.019C102.991 11.7414 102.963 11.7454 102.937 11.7532C102.911 11.761 102.888 11.7726 102.868 11.7872C102.848 11.8018 102.832 11.8192 102.821 11.8383C102.811 11.8575 102.805 11.878 102.805 11.8988V20.2991C102.806 20.3409 102.828 20.3809 102.868 20.4103C102.908 20.4398 102.962 20.4563 103.019 20.4563H110.649C110.705 20.4563 110.759 20.4397 110.799 20.4102C110.839 20.3807 110.861 20.3408 110.861 20.2991V19.2682C110.861 19.2265 110.839 19.1866 110.799 19.1571C110.759 19.1276 110.705 19.111 110.649 19.111H105.08C105.024 19.1107 104.97 19.0939 104.93 19.0642C104.89 19.0345 104.868 18.9944 104.868 18.9526V16.8381C104.868 16.7965 104.89 16.7565 104.93 16.727C104.97 16.6975 105.024 16.6809 105.08 16.6809H110.525C110.581 16.6809 110.635 16.6644 110.675 16.635C110.715 16.6055 110.738 16.5655 110.738 16.5237V15.4929C110.738 15.4509 110.716 15.4106 110.676 15.3809C110.636 15.3512 110.581 15.3345 110.525 15.3345H105.08C105.024 15.3345 104.97 15.3179 104.93 15.2885C104.89 15.259 104.868 15.219 104.868 15.1773V13.2452C104.868 13.2034 104.89 13.1633 104.93 13.1336C104.97 13.104 105.024 13.0871 105.08 13.0868H110.649C110.705 13.0868 110.759 13.0703 110.799 13.0408C110.839 13.0113 110.861 12.9713 110.861 12.9296V11.8988C110.861 11.8571 110.839 11.8171 110.799 11.7876C110.759 11.7581 110.705 11.7416 110.649 11.7416H110.648ZM118.691 15.8577H116.065C116.009 15.8577 115.955 15.8413 115.916 15.812C115.876 15.7828 115.854 15.7431 115.854 15.7017V13.2428C115.854 13.2014 115.876 13.1618 115.916 13.1325C115.955 13.1033 116.009 13.0868 116.065 13.0868H118.692C118.95 13.0719 119.209 13.0967 119.453 13.1596C119.697 13.2225 119.92 13.3221 120.11 13.4522C120.3 13.5823 120.451 13.7401 120.554 13.9156C120.658 14.0912 120.711 14.2807 120.711 14.4723C120.711 14.6639 120.658 14.8534 120.554 15.0289C120.451 15.2045 120.3 15.3622 120.11 15.4924C119.92 15.6225 119.697 15.7221 119.453 15.785C119.209 15.8478 118.95 15.8726 118.692 15.8577H118.691ZM120.309 16.9882C121.057 16.8508 121.717 16.5238 122.175 16.0636C122.632 15.6034 122.859 15.039 122.815 14.4681C122.832 14.0946 122.742 13.7226 122.552 13.3766C122.362 13.0306 122.075 12.7184 121.71 12.4604C121.346 12.2025 120.912 12.0047 120.437 11.8799C119.962 11.7552 119.456 11.7064 118.954 11.7368H114.003C113.947 11.7368 113.894 11.7532 113.854 11.7824C113.814 11.8116 113.792 11.8513 113.791 11.8928V20.2931C113.792 20.3346 113.814 20.3742 113.854 20.4035C113.894 20.4327 113.947 20.4491 114.003 20.4491H115.644C115.7 20.4491 115.753 20.4326 115.793 20.4034C115.832 20.3741 115.854 20.3344 115.854 20.2931V17.3602C115.854 17.3188 115.876 17.2791 115.916 17.2499C115.955 17.2206 116.009 17.2042 116.065 17.2042H117.796C117.832 17.2041 117.869 17.211 117.901 17.2242C117.933 17.2375 117.959 17.2566 117.979 17.2798L120.446 20.3807C120.465 20.4042 120.492 20.4237 120.524 20.4372C120.556 20.4507 120.592 20.4577 120.629 20.4575H122.525C122.563 20.458 122.601 20.4508 122.634 20.4366C122.666 20.4225 122.693 20.402 122.712 20.3773C122.73 20.3526 122.739 20.3247 122.737 20.2965C122.736 20.2683 122.724 20.241 122.703 20.2175C122.16 19.5718 120.665 17.8018 120.174 17.2174C120.158 17.1963 120.148 17.1726 120.146 17.1482C120.144 17.1238 120.15 17.0994 120.164 17.0771C120.177 17.0547 120.197 17.035 120.222 17.0196C120.248 17.0041 120.278 16.9934 120.31 16.9882H120.309ZM139.012 13.0868H144.591C144.619 13.087 144.646 13.0831 144.671 13.0755C144.696 13.0678 144.719 13.0565 144.739 13.0423C144.758 13.028 144.774 13.011 144.784 12.9923C144.795 12.9736 144.8 12.9535 144.8 12.9332V11.8952C144.8 11.8544 144.778 11.8154 144.739 11.7866C144.701 11.7578 144.648 11.7416 144.593 11.7416H136.951C136.896 11.7416 136.844 11.7578 136.805 11.7866C136.766 11.8154 136.744 11.8544 136.744 11.8952V20.3039C136.744 20.3446 136.766 20.3837 136.805 20.4125C136.844 20.4413 136.896 20.4575 136.951 20.4575H144.593C144.648 20.4575 144.701 20.4413 144.739 20.4125C144.778 20.3837 144.8 20.3446 144.8 20.3039V19.2658C144.8 19.2251 144.778 19.186 144.739 19.1572C144.701 19.1284 144.648 19.1122 144.593 19.1122H139.014C138.961 19.111 138.91 19.0944 138.872 19.066C138.835 19.0376 138.814 18.9995 138.813 18.9598V16.8357C138.813 16.795 138.835 16.7559 138.874 16.7271C138.913 16.6983 138.966 16.6821 139.021 16.6821H144.476C144.504 16.6821 144.531 16.6782 144.556 16.6705C144.581 16.6627 144.604 16.6514 144.623 16.6372C144.642 16.6229 144.657 16.606 144.668 16.5873C144.678 16.5687 144.684 16.5487 144.684 16.5285V15.4893C144.684 15.4486 144.662 15.4095 144.623 15.3807C144.584 15.3519 144.531 15.3357 144.476 15.3357H139.014C138.959 15.3357 138.907 15.3195 138.868 15.2907C138.829 15.2619 138.807 15.2228 138.807 15.1821V13.2404C138.807 13.1997 138.829 13.1606 138.868 13.1318C138.907 13.103 138.959 13.0868 139.014 13.0868H139.012ZM134.644 18.5302L133.295 18.0118C133.252 17.9963 133.202 17.9931 133.156 18.0028C133.11 18.0126 133.071 18.0346 133.045 18.0646C132.748 18.4109 132.34 18.6975 131.858 18.8988C131.376 19.1002 130.834 19.2102 130.28 19.219C129.74 19.2136 129.207 19.1265 128.713 18.9631C128.22 18.7996 127.777 18.5632 127.411 18.2683C127.045 17.9735 126.764 17.6263 126.585 17.2481C126.407 16.87 126.334 16.4687 126.371 16.0689C126.331 15.6688 126.402 15.2668 126.58 14.8878C126.758 14.5089 127.039 14.161 127.405 13.8658C127.772 13.5706 128.216 13.3344 128.71 13.1717C129.205 13.009 129.739 12.9233 130.28 12.92C130.834 12.9267 131.377 13.0355 131.859 13.2366C132.342 13.4377 132.75 13.7249 133.045 14.0721C133.071 14.1025 133.111 14.1246 133.158 14.1342C133.205 14.1437 133.255 14.14 133.298 14.1237L134.636 13.5824C134.66 13.573 134.681 13.56 134.698 13.5442C134.715 13.5284 134.727 13.5102 134.734 13.4907C134.741 13.4712 134.743 13.4508 134.739 13.4309C134.734 13.411 134.725 13.3919 134.71 13.3748C134.254 12.809 133.604 12.3429 132.825 12.0242C132.047 11.7054 131.169 11.5454 130.28 11.5604C129.482 11.5457 128.689 11.6531 127.95 11.8757C127.21 12.0984 126.541 12.4315 125.982 12.8545C125.424 13.2774 124.989 13.7811 124.705 14.3341C124.42 14.8871 124.293 15.4777 124.329 16.0689C124.294 16.66 124.423 17.2501 124.708 17.8027C124.993 18.3553 125.428 18.8586 125.986 19.2814C126.543 19.7042 127.213 20.0375 127.951 20.2607C128.69 20.4838 129.483 20.5921 130.28 20.5787C131.172 20.587 132.052 20.4217 132.831 20.0993C133.61 19.7769 134.261 19.3088 134.72 18.7414C134.735 18.7241 134.746 18.7045 134.75 18.6839C134.754 18.6634 134.753 18.6424 134.745 18.6224C134.738 18.6024 134.725 18.5838 134.706 18.5679C134.688 18.552 134.666 18.5391 134.641 18.5302H134.644ZM99.4964 11.7416H96.9205C96.8646 11.7416 96.8101 11.7541 96.7639 11.7774C96.7177 11.8007 96.6821 11.8338 96.6616 11.8724L93.5405 17.8534L90.4033 11.8712C90.3822 11.8327 90.3462 11.7999 90.2998 11.7768C90.2533 11.7537 90.1987 11.7414 90.1428 11.7416H87.5621C87.5256 11.7416 87.4906 11.7523 87.4648 11.7714C87.439 11.7906 87.4245 11.8165 87.4245 11.8436V20.3555C87.4245 20.3825 87.439 20.4085 87.4648 20.4276C87.4906 20.4467 87.5256 20.4575 87.5621 20.4575H89.3419C89.3785 20.4575 89.4136 20.4468 89.4397 20.4277C89.4657 20.4086 89.4806 20.3826 89.481 20.3555V13.7276L93.0697 20.4119C93.0771 20.4254 93.0899 20.4371 93.1064 20.4452C93.1228 20.4533 93.1422 20.4576 93.1619 20.4575H93.9078C93.9276 20.4576 93.9469 20.4533 93.9634 20.4452C93.9798 20.4371 93.9926 20.4254 94 20.4119L97.5709 13.7276V20.3555C97.5709 20.3825 97.5854 20.4085 97.6112 20.4276C97.637 20.4467 97.672 20.4575 97.7085 20.4575H99.4964C99.533 20.4575 99.5681 20.4468 99.5942 20.4277C99.6202 20.4086 99.6351 20.3826 99.6355 20.3555V11.8436C99.6351 11.8164 99.6202 11.7905 99.5942 11.7714C99.5681 11.7523 99.533 11.7416 99.4964 11.7416Z" fill="black"/>
</svg>
