<svg width="145" height="32" viewBox="0 0 145 32" fill="none" xmlns="http://www.w3.org/2000/svg">
<path d="M103.012 0C99.7058 0 97.7224 2.55952 97.7224 15.837C97.7224 30.8742 100.367 31.994 103.012 31.994C104.598 31.994 105.921 31.5141 108.301 29.2745V12.6376H102.747V15.0372H105.26V28.7946C104.778 29.2901 104.172 29.5722 103.541 29.5945C102.615 29.5945 101.954 28.9546 101.557 27.1949C101.01 23.3933 100.789 19.5336 100.896 15.6771C100.896 6.55878 101.557 2.23958 103.144 2.23958C104.466 2.23958 104.863 5.59896 104.995 8.63839L108.169 7.83854C107.375 0.639881 105.127 0 103.012 0ZM27.243 31.5141H35.8381V29.2745H30.2844V14.8772H34.7802V12.4777H30.2844V2.71949H35.8381V0.479911H27.243V31.5141Z" fill="black"/>
<path d="M40.9951 0.47998L37.4248 31.5142H39.9372L40.4661 25.2754H44.1686L44.6975 31.5142H48.0033L44.3008 0.47998H40.9951ZM43.9041 23.0358H40.8628V22.8758L42.1851 8.47849H42.4496L43.9041 23.0358Z" fill="black"/>
<path d="M51.838 31.5142H55.0116V2.71956H58.4496V0.47998H48.4V2.71956H51.838V31.5142ZM73.524 31.5142H76.6975V0.47998H73.524V12.4777H69.1604V0.47998H66.119V31.5142H69.1604V14.8773H73.524V31.5142ZM91.5075 31.5142H94.681V0.47998H91.5075V31.5142Z" fill="black"/>
<path d="M21.2926 31.514H24.3339L21.9537 14.3972H22.086C23.6727 13.2774 24.3339 11.1978 24.3339 7.51848C24.3339 1.59959 22.2182 0.319824 19.0446 0.319824H14.2843V31.354H17.3256V15.1971H19.4413L21.2926 31.514ZM18.7802 12.7975H17.3256V2.71938H18.7802C20.3669 2.71938 21.2926 4.47905 21.2926 7.51848C21.2926 11.0378 20.3669 12.7975 18.7802 12.7975Z" fill="black"/>
<path d="M80.0033 31.5141H88.5984V29.2745H83.0446V14.8772H87.5405V12.4777H83.0446V2.71949H88.5984V0.479911H80.0033V31.5141ZM119.012 31.5141H122.185V0.479911H119.012V12.4777H114.78V0.479911H111.607V31.5141H114.78V14.8772H119.012V31.5141ZM127.342 31.5141H130.383V2.71949H133.954V0.479911H123.772V2.71949H127.342V31.5141ZM134.747 20.9561C134.615 25.7552 135.144 28.9546 136.466 30.5543C136.86 31.0408 137.335 31.4207 137.859 31.6689C138.383 31.9171 138.945 32.0279 139.507 31.994C143.871 31.994 144.4 27.1949 144.4 22.5558C144.4 18.0766 144.003 16.7969 141.755 14.5573L140.169 12.9576C138.45 11.1979 138.317 10.2381 138.317 7.67857C138.317 4.95908 138.45 2.39955 139.64 2.39955C139.921 2.43269 140.192 2.54205 140.433 2.71949C141.094 3.51934 141.226 6.87872 141.226 9.43824L144.268 8.63839C144.136 1.43973 142.549 0 139.64 0C136.466 0 135.144 2.23958 135.144 7.67857C135.144 12.1577 135.805 13.4375 137.788 15.5171L139.375 17.1168C140.83 18.7165 141.226 19.6763 141.226 22.8757C141.226 27.6748 140.698 29.5945 139.64 29.5945C139.488 29.5829 139.339 29.5344 139.203 29.452C139.066 29.3695 138.945 29.2548 138.846 29.1146C138.185 28.1548 137.788 24.4754 138.053 19.9963L134.747 20.9561ZM5.68928 0C2.3835 0 0.400024 2.55952 0.400024 15.837C0.400024 30.7143 3.04465 31.994 5.68928 31.994C7.27606 31.994 8.59837 31.5141 10.9785 29.2745V12.6376H5.42482V15.0372H7.80498V28.7946C7.32388 29.2901 6.71751 29.5722 6.08598 29.5945C5.16036 29.5945 4.4992 28.9546 4.1025 27.1949C3.55584 23.3933 3.33429 19.5336 3.44135 15.6771C3.44135 6.55878 4.1025 2.23958 5.68928 2.23958C7.01159 2.23958 7.40829 5.59896 7.54052 8.63839L10.7141 7.83854C10.0529 0.639881 7.80498 0 5.68928 0Z" fill="black"/>
</svg>
