<svg width="79" height="28" viewBox="0 0 79 28" fill="none" xmlns="http://www.w3.org/2000/svg">
<g clip-path="url(#clip0_1_17)">
<path d="M9.69911 16.9052C7.28175 16.2616 5.19395 15.7057 5.19395 13.5314C5.20339 13.156 5.28822 12.7863 5.44335 12.4447C5.59848 12.103 5.82072 11.7964 6.09671 11.5432C6.37269 11.29 6.69674 11.0955 7.04939 10.9714C7.40204 10.8472 7.77602 10.796 8.14886 10.8208C10.1892 10.8208 10.8028 12.1444 11.3989 13.4249C11.8903 14.4846 12.3544 15.4855 13.6024 15.4855C13.8372 15.498 14.0721 15.4627 14.293 15.3815C14.5138 15.3003 14.716 15.175 14.8874 15.0132C15.0588 14.8514 15.1959 14.6563 15.2902 14.4398C15.3846 14.2234 15.4344 13.9899 15.4367 13.7535C15.4367 11.5185 12.628 9.20775 7.92981 9.20775C3.6632 9.20775 0.568555 11.4774 0.568555 14.6048C0.568555 18.7789 3.88875 19.6426 6.81701 20.405C9.21616 21.0289 11.2877 21.5679 11.2877 23.7134C11.2877 25.412 10.0729 26.424 8.0377 26.424C5.7328 26.424 5.08995 25.0717 4.46855 23.7637C3.96935 22.7138 3.49745 21.7221 2.1812 21.7221C0.940355 21.7221 0.200005 22.4094 0.200005 23.5651C0.200005 25.7269 3.13215 27.9626 8.0377 27.9626C12.6748 27.9626 15.9138 25.7884 15.9138 22.6759C15.9138 18.56 12.6118 17.68 9.69911 16.9045V16.9052ZM40.3427 9.20775C40.0585 9.18298 39.7722 9.21977 39.5033 9.31563C39.2344 9.41149 38.9891 9.5642 38.7839 9.76345C38.5787 9.9627 38.4184 10.2039 38.3138 10.4707C38.2092 10.7375 38.1627 11.0237 38.1776 11.3101C38.1776 12.5449 38.8835 13.2819 39.631 14.0632C40.4558 14.9243 41.308 15.8161 41.308 17.4932C41.308 22.1735 38.2608 25.9425 35.7388 25.9425C35.4835 25.9537 35.2286 25.9121 34.99 25.8202C34.7514 25.7282 34.5341 25.588 34.3517 25.4081C33.8018 24.8463 33.534 23.8526 33.5567 22.4551L33.6308 10.238C33.6426 10.0861 33.6199 9.93345 33.5644 9.79163C33.5089 9.64982 33.422 9.52254 33.3104 9.41942C33.1512 9.31066 32.9698 9.23892 32.7796 9.20942C32.5894 9.17993 32.395 9.19341 32.2106 9.24891L28.605 9.98716C28.3998 10.0028 28.2073 10.0932 28.0637 10.2414C27.92 10.3896 27.8352 10.5854 27.825 10.792V10.9025C27.825 11.2696 28.0974 11.5192 28.386 11.7831C28.6407 11.9653 28.8493 12.205 28.9951 12.4831C29.1408 12.7611 29.2196 13.0696 29.2251 13.3838V18.4927C29.2251 23.1561 26.8611 25.9406 24.5757 25.9406C24.3296 25.9485 24.0846 25.9052 23.856 25.8134C23.6274 25.7217 23.4201 25.5835 23.2471 25.4075C22.6907 24.8391 22.4086 23.8441 22.4313 22.527L22.5048 10.2348C22.5168 10.1036 22.4997 9.97141 22.4548 9.8477C22.4098 9.72399 22.3381 9.61185 22.2448 9.51938C22.0736 9.41562 21.8834 9.34762 21.6855 9.31944C21.4876 9.29127 21.2861 9.3035 21.093 9.3554L17.1832 9.98585C16.9854 10.0108 16.8028 10.1051 16.6676 10.2523C16.5323 10.3995 16.4532 10.59 16.4442 10.7901V10.9005C16.4442 11.2677 16.7172 11.5172 17.0058 11.7812C17.2604 11.9634 17.469 12.2031 17.6146 12.4812C17.7602 12.7592 17.8389 13.0677 17.8443 13.3818V20.895C17.8443 27.3041 21.9607 27.9959 23.73 27.9959C24.9493 28.028 26.1562 27.7437 27.2343 27.1703C28.3124 26.597 29.2253 25.754 29.8849 24.7228C30.2568 25.7304 30.9399 26.5918 31.8343 27.1808C32.7286 27.7698 33.7872 28.0555 34.8548 27.9959C39.4275 27.9959 44.0562 23.6108 44.0562 15.2301C44.0562 11.5127 42.634 9.20317 40.3434 9.20317L40.3427 9.20775ZM54.1279 17.9851C52.4346 18.2526 50.7168 18.329 49.0066 18.2131C48.9414 17.667 48.9095 17.1174 48.911 16.5674C48.911 13.3237 50.681 10.9691 53.1191 10.9691C54.028 10.979 54.8985 11.3387 55.5514 11.9742C56.2044 12.6097 56.5901 13.4726 56.6291 14.3853C56.6681 17.0639 55.3844 17.7074 54.126 17.9851H54.1279ZM61.276 21.6548C61.0978 21.5905 60.9038 21.5855 60.7226 21.6406C60.5414 21.6956 60.3826 21.8078 60.2698 21.9606L60.2548 21.9841C59.4852 23.5305 57.3838 24.6104 55.1432 24.6104C52.4925 24.6104 50.4275 22.9817 49.4492 20.1332C51.2975 20.3478 53.1676 20.2782 54.995 19.9268C58.7774 19.1088 61.0361 17.0371 61.0361 14.3833C61.052 13.7664 60.9417 13.1528 60.7121 12.5804C60.4824 12.0081 60.1383 11.4892 59.701 11.056C58.4816 9.84147 56.4978 9.18357 54.1175 9.2084C48.872 9.24695 45.0643 13.1362 45.0643 18.4568C45.0643 24.1655 48.807 28.0012 54.3762 28.0012C56.321 28.0587 58.2138 27.3645 59.6646 26.0614C60.7198 25.1115 61.4342 23.8385 61.6972 22.4394V22.4323C61.725 22.274 61.6985 22.1109 61.6219 21.9697C61.5454 21.8286 61.4234 21.7177 61.276 21.6555V21.6548ZM69.1793 25.8537C68.9283 25.7058 68.7187 25.4964 68.5699 25.2451C68.4211 24.9937 68.3381 24.7087 68.3285 24.4164V0.890979C68.3344 0.741678 68.3019 0.593363 68.2343 0.460296C68.1667 0.327228 68.0662 0.213886 67.9424 0.131168C67.7642 0.0402083 67.5658 -0.00356823 67.3661 0.00397679C67.1664 0.0115218 66.9719 0.070139 66.801 0.174287L63.0804 2.0258C62.7502 2.19174 62.3764 2.37924 62.3764 2.81762V2.92738C62.3764 3.25012 62.615 3.48009 62.8906 3.74664C63.2689 4.11054 63.7395 4.02496 63.7395 4.90498V24.417C63.7362 24.7016 63.6647 24.9812 63.5311 25.2321C63.3975 25.483 63.2056 25.6978 62.9718 25.8583C62.8067 25.9637 62.6675 26.1053 62.5644 26.2723C62.4613 26.4394 62.397 26.6277 62.3764 26.8232V26.9349C62.3764 27.357 62.7352 27.6301 63.2897 27.6301H68.8888C69.4478 27.6301 69.8391 27.3439 69.8391 26.9349V26.8232C69.8391 26.3861 69.518 26.1274 69.1793 25.8537ZM77.5403 25.8537C77.2894 25.7056 77.08 25.4962 76.9313 25.2449C76.7827 24.9936 76.6997 24.7086 76.6901 24.4164V0.890979C76.6958 0.740998 76.6629 0.592063 76.5946 0.458603C76.5263 0.325143 76.4248 0.211681 76.3001 0.129208C76.1219 0.0384264 75.9237 -0.00525191 75.7241 0.0022922C75.5245 0.0098363 75.3302 0.0683542 75.1593 0.172327L71.44 2.0258C71.1105 2.19174 70.7374 2.37924 70.7374 2.81762V2.92738C70.7374 3.25012 70.9753 3.48009 71.2515 3.74664C71.6298 4.11054 72.1004 4.02496 72.1004 4.90498V24.417C72.0972 24.7017 72.0257 24.9813 71.8919 25.2323C71.7582 25.4832 71.5661 25.6979 71.3321 25.8583C71.1672 25.9638 71.028 26.1054 70.925 26.2724C70.8221 26.4395 70.7579 26.6278 70.7374 26.8232V26.9349C70.7374 27.357 71.0955 27.6301 71.6506 27.6301H77.2491C77.8087 27.6301 78.1994 27.3439 78.1994 26.9349V26.8232C78.1994 26.3861 77.8789 26.1274 77.5396 25.8537" fill="#550088"/>
</g>
<defs>
<clipPath id="clip0_1_17">
<rect width="78" height="28" fill="white" transform="translate(0.200005)"/>
</clipPath>
</defs>
</svg>
