<svg width="49" height="40" viewBox="0 0 49 40" fill="none" xmlns="http://www.w3.org/2000/svg">
<path d="M39.4662 9.07946C34.4639 13.029 29.7487 15.1707 25.4578 15.426C22.1577 15.621 18.6581 14.8492 15.0652 13.1276C12.0934 11.7046 9.80131 10.0043 8.42871 8.98999L8.28936 8.88642H8.28853H8.28936C10.7525 6.81892 13.8691 5.30111 17.3218 4.48757C17.3218 4.48626 17.3218 4.48626 17.3227 4.48593L17.3248 4.48626L17.3218 4.48757C16.9522 5.55336 16.8863 6.69519 17.1141 7.83702C17.5238 9.8847 18.8655 11.6938 20.798 12.7973C22.3083 13.6615 24.0785 14.023 25.7823 13.8119C27.4833 13.6022 29.0286 12.832 30.1284 11.645C31.5364 10.1282 32.1072 8.0838 31.697 6.03611C31.6219 5.65955 31.5135 5.28822 31.3754 4.92542L31.3758 4.9264C33.8761 5.67462 36.1891 6.76893 38.2371 8.17065C38.6606 8.46175 39.0709 8.76455 39.4671 9.07847L39.4662 9.07946ZM15.8666 24.9402C15.3468 27.348 14.6355 30.6359 15.2759 35.605L15.2738 35.6024C13.58 34.929 11.9988 34.0938 10.566 33.1155C6.66394 30.4445 4.02595 26.8099 3.14148 22.8827C2.28788 19.1085 3.08724 15.2612 5.38604 12.013H5.3852L5.38645 12.0124V12.013C6.26258 12.7321 7.32061 13.5583 8.42996 14.4225C11.1451 16.5351 14.222 18.9312 15.7185 20.6347C16.5855 21.6215 16.3151 22.8699 15.8666 24.9392V24.9402ZM44.7468 9.81489C46.8528 7.86094 47.7857 6.95738 47.5834 6.46479C47.4298 6.09543 46.9396 5.76999 46.202 5.54976C45.4081 5.31346 44.3204 5.20465 43.7734 5.45668C43.5911 5.54025 43.2949 5.80277 42.5823 6.43595L41.9173 7.02554H41.9144C41.4917 6.68481 41.0519 6.35747 40.596 6.04431C37.3764 3.83931 33.428 2.40252 29.1763 1.88339C27.4633 0.452498 25.2283 -0.211164 23.0292 0.059217C21.1835 0.287648 19.5568 1.15385 18.4425 2.50051C14.1215 3.53386 10.2085 5.48126 7.10993 8.14148V8.13919C6.41737 7.97663 4.89791 8.18769 3.94793 8.59703C3.40056 8.83235 3.08849 9.10568 3.01965 9.41145C2.96708 9.64316 3.08682 10.006 4.27085 11.0668L4.27002 11.0682C1.22692 14.8768 -0.0922763 19.3838 0.565238 23.7626C1.23902 28.2536 3.95336 32.329 8.20759 35.2432C9.70483 36.2684 11.3677 37.134 13.1531 37.8175C15.7214 38.7994 18.5576 39.485 21.5882 39.8039C27.9522 40.4709 34.1014 39.4041 39.1371 37.0962L39.1462 37.0903C39.7883 36.8104 40.0211 36.1965 39.6994 35.6276L39.6035 35.4572C38.2951 33.1539 34.3138 26.1436 36.5312 19.7475C37.4582 17.0709 40.1329 14.2203 42.4438 11.9835H42.4451C44.9053 14.9849 46.1624 18.5552 45.98 22.0607C45.8073 25.3839 44.4139 28.4751 41.9332 31.0718C41.8778 31.1246 41.8418 31.1883 41.8291 31.2559C41.8164 31.3236 41.8274 31.3927 41.861 31.4559L42.1134 31.918C42.1952 32.0556 42.3796 32.148 42.5844 32.1369C42.6501 32.1332 42.7142 32.119 42.7726 32.0951C42.8311 32.0713 42.8828 32.0383 42.9244 31.9983C49.4595 25.4878 50.2426 16.5276 44.7468 9.81489Z" fill="black"/>
</svg>
