<svg width="160" height="32" viewBox="0 0 160 32" fill="none" xmlns="http://www.w3.org/2000/svg">
<path d="M0 16.0048C0 14.0853 0.38873 12.3259 1.16619 10.7263L10.107 30.0806C4.08166 27.3614 0 22.083 0 16.0048ZM12.6337 31.0403L2.13801 8.64695C3.76434 6.05541 6.22158 3.87962 9.24338 2.35542C12.2652 0.831215 15.7363 0.0167336 19.2805 0.000255098C22.8247 -0.0162234 26.3068 0.765929 29.3493 2.26194C32.3918 3.75795 34.8788 5.91074 36.5406 8.487L26.0449 30.8803C24.1012 31.6801 21.7689 32 19.4365 32C17.1041 32 14.7717 31.6801 12.6337 31.0403ZM28.766 30.0806L37.7068 10.7263C38.4842 12.3259 38.873 14.2453 38.873 16.0048C38.873 22.083 34.7913 27.3614 28.766 30.0806ZM28.9604 16.0048C28.9552 13.9218 27.9448 11.9259 26.1515 10.4561C24.3581 8.98622 21.9287 8.16285 19.3976 8.16709C16.8666 8.17133 14.4412 9.00284 12.6552 10.4787C10.8691 11.9545 9.86858 13.9538 9.87374 16.0368C9.87889 18.1197 10.8893 20.1156 12.6827 21.5854C14.476 23.0553 16.9054 23.8787 19.4365 23.8744C21.9675 23.8702 24.3929 23.0387 26.1789 21.5628C27.965 20.087 28.9655 18.0877 28.9604 16.0048ZM19.4365 22.2429C17.9373 22.2429 16.4717 21.877 15.2251 21.1916C13.9786 20.5061 13.007 19.5319 12.4333 18.392C11.8595 17.2521 11.7094 15.9978 12.0019 14.7878C12.2944 13.5777 13.0163 12.4661 14.0765 11.5937C15.1366 10.7213 16.4872 10.1272 17.9577 9.88648C19.4281 9.64578 20.9522 9.76931 22.3373 10.2415C23.7224 10.7136 24.9063 11.5132 25.7392 12.539C26.5721 13.5649 27.0167 14.771 27.0167 16.0048C27.0167 19.3638 23.5182 22.2429 19.4365 22.2429ZM159.379 20.1635C159.379 20.0036 159.185 19.8436 158.99 19.8436H158.407V20.8033H158.602V20.3235H158.99L159.185 20.8033H159.379L159.185 20.3235C159.379 20.4834 159.379 20.3235 159.379 20.1635ZM158.99 20.3235H158.602V20.0036H158.99C159.185 20.0036 159.185 20.0036 159.185 20.1635C159.185 20.3235 159.185 20.3235 158.99 20.3235Z" fill="black"/>
<path d="M158.796 19.3636C158.213 19.3636 157.63 19.8434 157.63 20.3233C157.63 20.8032 158.213 21.283 158.796 21.283C159.379 21.283 159.962 20.8032 159.962 20.3233C160.157 19.8434 159.574 19.3636 158.796 19.3636ZM158.796 21.283C158.213 21.283 157.824 20.9631 157.824 20.4832C157.824 20.0034 158.213 19.6835 158.796 19.6835C159.379 19.6835 159.768 20.0034 159.768 20.4832C159.962 20.9631 159.379 21.283 158.796 21.283ZM56.5602 10.2463C57.3377 9.28658 59.0869 8.48682 61.4193 8.48682C64.9179 8.48682 67.2503 10.4062 67.2503 13.6053V21.283H64.7235V13.7652C64.7235 11.6859 63.363 10.4062 61.0306 10.4062C58.5038 10.4062 56.7546 11.8458 56.7546 14.0852V21.1231H54.2278V8.64677H56.7546V10.2463H56.5602ZM85.3262 14.8849C85.3529 15.7521 85.165 16.6147 84.774 17.4203C84.383 18.2259 83.7969 18.9577 83.0516 19.5711C82.3062 20.1845 81.417 20.6667 80.4381 20.9885C79.4592 21.3103 78.411 21.4649 77.3572 21.443C72.6925 21.443 69.3883 18.5638 69.3883 14.8849C69.3883 11.206 72.6925 8.48682 77.3572 8.48682C82.022 8.48682 85.3262 11.366 85.3262 14.8849ZM72.1094 15.0449C72.1094 17.6041 74.2474 19.5235 77.3572 19.5235C80.4671 19.5235 82.7995 17.6041 82.7995 15.0449C82.7995 12.4856 80.4671 10.5662 77.5516 10.5662C74.4418 10.4062 72.1094 12.4856 72.1094 15.0449ZM115.064 21.283L109.233 8.80672H112.149L116.813 19.0437L121.672 8.80672H124.394L118.563 21.283H115.064ZM156.464 18.2439C155.103 20.1633 152.771 21.443 149.467 21.443C144.802 21.443 141.692 18.5638 141.692 14.8849C141.692 11.206 144.802 8.48682 149.467 8.48682C152.965 8.48682 155.103 9.76644 156.464 11.6859L154.52 12.8055C154.047 12.0947 153.341 11.5077 152.481 11.1117C151.622 10.7157 150.645 10.5266 149.661 10.5662C146.551 10.5662 144.413 12.4856 144.413 15.0449C144.413 17.6041 146.551 19.5235 149.661 19.5235C152.188 19.5235 153.548 18.5638 154.52 17.2842L156.464 18.2439ZM132.168 8.48682C128.864 8.48682 126.143 9.92639 126.143 9.92639L127.309 11.6859C127.309 11.6859 129.641 10.5662 132.168 10.5662C134.889 10.5662 136.444 11.8458 136.444 13.6053H131.002C127.698 13.6053 124.977 14.725 124.977 17.4442C124.977 19.6835 127.115 21.6029 130.808 21.6029C133.334 21.6029 134.889 21.1231 136.444 20.1633V21.283H139.165V13.7652C139.165 10.4062 136.833 8.48682 132.168 8.48682ZM136.444 17.4442C135.472 18.7238 132.751 19.5235 131.196 19.5235C128.864 19.5235 127.503 18.7238 127.503 17.2842C127.503 15.6847 129.253 15.2048 131.196 15.2048H136.444V17.4442ZM105.735 8.64677L101.458 17.7641L97.1825 8.64677H96.405L92.129 17.7641L87.8529 8.64677H85.5206L91.3515 21.1231H93.4895L96.9881 13.4453L100.487 21.1231H102.625L108.456 8.64677H105.735Z" fill="black"/>
</svg>
