<svg width="41" height="40" viewBox="0 0 41 40" fill="none" xmlns="http://www.w3.org/2000/svg">
<path d="M16.45 27.5H17.7V28.75H16.45V27.5ZM19.576 25H20.826V26.25H19.576V25ZM19.576 15H20.826V16.25H19.576V15ZM13.95 15H15.2V16.25H13.95V15ZM25.2 15H26.45V16.25H25.2V15ZM16.45 13.75H17.7V15H16.45V13.75ZM22.7 13.75H23.95V15H22.7V13.75ZM19.576 18.126H20.826V19.376H19.576V18.126ZM12.7 18.126H13.95V19.376H12.7V18.126ZM13.95 21.25H15.2V22.5H13.95V21.25ZM25.2 20.626H26.45V21.876H25.2V20.626ZM26.45 18.126H27.7V19.376H26.45V18.126ZM16.45 16.876H17.7V18.126H16.45V16.876ZM16.45 19.376H17.7V20.626H16.45V19.376ZM6.44995 23.75H7.69995V25H6.44995V23.75ZM8.94995 20.626H10.2V21.876H8.94995V20.626ZM10.826 23.75H12.076V25H10.826V23.75ZM8.94995 27.5H10.2V28.75H8.94995V27.5ZM32.7 23.75H33.95V25H32.7V23.75ZM30.2 20.626H31.45V21.876H30.2V20.626ZM28.326 23.75H29.576V25H28.326V23.75ZM30.2 27.5H31.45V28.75H30.2V27.5ZM22.7 16.876H23.95V18.126H22.7V16.876ZM22.7 19.376H23.95V20.626H22.7V19.376ZM22.076 27.5H23.326V28.75H22.076V27.5ZM19.576 30H20.826V31.25H19.576V30ZM13.95 32.5H15.2V33.75H13.95V32.5ZM16.45 32.5H17.7V33.75H16.45V32.5ZM15.2 35H16.45V36.25H15.2V35ZM11.45 36.25H12.7V37.5H11.45V36.25ZM27.7 36.25H28.95V37.5H27.7V36.25ZM18.95 35H20.2V36.25H18.95V35ZM26.45 32.5H27.7V33.75H26.45V32.5ZM23.95 32.5H25.2V33.75H23.95V32.5ZM25.2 35H26.45V36.25H25.2V35ZM21.45 33.75H22.7V35H21.45V33.75ZM21.124 0.086C20.819 0.0308724 20.5098 0.00209953 20.2 0C16.2 0 12.7 4.674 12.7 10C12.7007 11.1134 12.8527 12.2216 13.152 13.294L14.352 12.958C14.0842 11.9948 13.9489 10.9997 13.95 10C13.95 5.376 16.824 1.316 20.118 1.25L20.104 1.28C19.9664 1.54738 19.819 1.80956 19.662 2.066C18.8668 3.23597 18.4539 4.62364 18.48 6.038C18.4538 7.44955 18.8676 8.83426 19.664 10C20.344 10.9734 20.6945 12.139 20.664 13.326H21.914C21.9414 11.9124 21.5275 10.5254 20.73 9.358C20.0499 8.38462 19.6994 7.21902 19.73 6.032C19.6996 4.84375 20.05 3.67692 20.73 2.702C20.8286 2.538 20.9266 2.37 21.024 2.198L21.112 2.034C21.204 1.862 21.294 1.682 21.378 1.49L21.408 1.43C24.228 2.276 26.446 5.974 26.446 9.994C26.4465 10.9935 26.312 11.9885 26.046 12.952L27.246 13.286C27.5445 12.2161 27.6972 11.1108 27.7 10C27.7 5.084 24.812 0.728 21.124 0.086Z" fill="black"/>
<path d="M35.516 38.75L23.8 22.8C23.3968 22.2216 22.8598 21.7491 22.2347 21.4229C21.6097 21.0966 20.915 20.9263 20.21 20.9263C19.5049 20.9263 18.8102 21.0966 18.1852 21.4229C17.5601 21.7491 17.0231 22.2216 16.62 22.8L4.88395 38.75H0.199951V40H40.2V38.75H35.516ZM6.43595 38.75L17.636 23.522C17.9249 23.1081 18.3098 22.7702 18.7577 22.5373C19.2056 22.3044 19.7032 22.1834 20.2081 22.1846C20.7129 22.1857 21.21 22.3091 21.6568 22.5441C22.1036 22.7791 22.4869 23.1187 22.774 23.534L33.9739 38.75H6.43595Z" fill="black"/>
</svg>
