<svg width="41" height="40" viewBox="0 0 41 40" fill="none" xmlns="http://www.w3.org/2000/svg">
<path d="M36.36 23.0156C36.3202 22.9422 36.2565 22.8743 36.1726 22.8158C36.0887 22.7573 35.9863 22.7094 35.8713 22.6749C35.7563 22.6404 35.631 22.6199 35.5027 22.6147C35.3744 22.6095 35.2457 22.6197 35.124 22.6447C34.8804 22.6989 34.6816 22.8079 34.5696 22.9487C34.4576 23.0894 34.4412 23.2507 34.524 23.3986C37.294 28.3698 38.7549 33.57 38.854 38.8115H11.862C11.6236 38.8319 11.4055 38.9032 11.2477 39.0124C11.0899 39.1216 11.0031 39.2612 11.0031 39.4058C11.0031 39.5503 11.0899 39.69 11.2477 39.7991C11.4055 39.9083 11.6236 39.9796 11.862 40H39.826C39.9549 39.9994 40.0824 39.9835 40.2011 39.9533C40.3199 39.9231 40.4276 39.8792 40.518 39.824C40.6084 39.7688 40.6799 39.7035 40.7283 39.6317C40.7767 39.5599 40.801 39.4832 40.8 39.4058C40.8039 33.8343 39.3044 28.2993 36.36 23.0156ZM40.308 7.02281C35.4102 4.01745 28.7737 2.25847 21.774 2.11044V0.584634C21.774 0.429579 21.6714 0.280875 21.4887 0.171235C21.306 0.0615952 21.0583 0 20.8 0C20.5417 0 20.2939 0.0615952 20.1113 0.171235C19.9286 0.280875 19.826 0.429579 19.826 0.584634V2.11044C12.8262 2.25847 6.18976 4.01745 1.29202 7.02281C1.10879 7.13501 1.00616 7.28586 1.00616 7.44298C1.00616 7.60009 1.10879 7.75094 1.29202 7.86315C1.38162 7.91817 1.48863 7.9619 1.60678 7.99175C1.72493 8.02161 1.85183 8.03698 1.98002 8.03698C2.10821 8.03698 2.23511 8.02161 2.35325 7.99175C2.4714 7.9619 2.57842 7.91817 2.66802 7.86315C3.79162 7.17685 5.01962 6.5551 6.33601 6.006L9.75801 16.4502L9.60601 16.6351C3.82333 23.7244 0.811581 31.5123 0.800021 39.4058C0.798966 39.4832 0.823323 39.5599 0.871701 39.6317C0.920079 39.7035 0.99153 39.7688 1.08197 39.824C1.17242 39.8792 1.28009 39.9231 1.39883 39.9533C1.51757 39.9835 1.64506 39.9994 1.77402 40H8.61601C8.85438 39.9796 9.07249 39.9083 9.23028 39.7991C9.38807 39.69 9.47494 39.5503 9.47494 39.4058C9.47494 39.2612 9.38807 39.1216 9.23028 39.0124C9.07249 38.9032 8.85438 38.8319 8.61601 38.8115H2.75402C2.91343 31.304 5.85093 23.9117 11.354 17.1693L11.386 17.1297H30.226L30.258 17.1693C31.4035 18.5681 32.44 19.9983 33.364 21.455C33.4333 21.566 33.5574 21.6618 33.7195 21.7295C33.8817 21.7973 34.0744 21.8338 34.272 21.8343C34.4325 21.8343 34.5905 21.8106 34.7322 21.7654C34.8738 21.7201 34.9948 21.6546 35.0845 21.5747C35.1741 21.4948 35.2297 21.4029 35.2464 21.3071C35.263 21.2113 35.2402 21.1145 35.18 21.0252C34.2342 19.5337 33.1731 18.0696 32 16.6375L31.848 16.4526L35.27 6.0084C36.5857 6.55752 37.8131 7.17927 38.936 7.86555C39.0257 7.92061 39.1329 7.96436 39.2512 7.99423C39.3695 8.0241 39.4966 8.03948 39.625 8.03948C39.7533 8.03948 39.8804 8.0241 39.9987 7.99423C40.117 7.96436 40.2242 7.92061 40.314 7.86555C40.4976 7.75277 40.5999 7.60114 40.5988 7.44344C40.5977 7.28574 40.4932 7.13464 40.308 7.02281ZM28.26 3.95918C27.8277 4.94908 26.8612 5.8251 25.5114 6.45028C24.1617 7.07547 22.5049 7.41456 20.8 7.41456C19.0951 7.41456 17.4383 7.07547 16.0886 6.45028C14.7388 5.8251 13.7723 4.94908 13.34 3.95918C18.2014 3.06362 23.3986 3.06362 28.26 3.95918ZM30.024 15.9412H11.578L8.10001 5.33253C9.19103 4.95382 10.3275 4.62438 11.5 4.34694C12.0258 5.4447 13.0673 6.4283 14.5 7.18007C16.2449 8.0979 18.4859 8.6039 20.806 8.6039C23.1261 8.6039 25.3671 8.0979 27.112 7.18007C28.5447 6.4283 29.5862 5.4447 30.112 4.34694C31.2845 4.62438 32.4209 4.95382 33.512 5.33253L30.024 15.9412Z" fill="black"/>
</svg>
