<svg width="41" height="40" viewBox="0 0 41 40" fill="none" xmlns="http://www.w3.org/2000/svg">
<path d="M35.63 13.3127C35.4973 13.1957 35.3118 13.1256 35.1144 13.1179C34.917 13.1101 34.7238 13.1652 34.5773 13.2712C34.4307 13.3771 34.343 13.5252 34.3332 13.6828C34.3234 13.8405 34.3925 13.9947 34.5252 14.1117C37.3779 16.6252 39.0625 19.8449 39.2968 23.2317C39.5311 26.6185 38.301 29.9668 35.8124 32.7159C33.3238 35.4649 29.7278 37.4479 25.6266 38.3328C21.5254 39.2176 17.1679 38.9506 13.2839 37.5764C9.39981 36.2022 6.22495 33.8044 4.29093 30.7843C2.3569 27.7642 1.78112 24.3052 2.66001 20.9866C3.5389 17.6681 5.81909 14.6913 9.11877 12.5548C12.4185 10.4183 16.5373 9.25184 20.7856 9.25066C25.0133 9.25264 29.114 10.4047 32.4117 12.5169C32.5649 12.6159 32.761 12.6622 32.9569 12.6457C33.1528 12.6292 33.3325 12.5513 33.4565 12.429C33.5804 12.3068 33.6384 12.1502 33.6178 11.9938C33.5972 11.8373 33.4995 11.6938 33.3464 11.5949C31.0962 10.1506 28.4812 9.11214 25.681 8.55075L29.1354 5.19501C29.2299 5.10294 29.2875 4.9903 29.3008 4.87174C29.314 4.75318 29.2822 4.63419 29.2095 4.53025L26.2394 0.303615C26.1745 0.211499 26.08 0.134834 25.9657 0.0814811C25.8514 0.028128 25.7214 6.54018e-06 25.589 0L15.9822 0C15.8498 6.54018e-06 15.7198 0.028128 15.6055 0.0814811C15.4912 0.134834 15.3967 0.211499 15.3318 0.303615L12.3617 4.53185C12.2885 4.63566 12.2564 4.75473 12.2696 4.8734C12.2828 4.99206 12.3408 5.10474 12.4358 5.19661L15.8862 8.55235C11.6486 9.40987 7.8796 11.3523 5.15595 14.0825C2.4323 16.8126 0.904007 20.1801 0.804943 23.6696C0.705879 27.1591 2.0415 30.5784 4.60741 33.4043C7.17333 36.2302 10.8282 38.307 15.0128 39.3169C19.1974 40.3269 23.6811 40.2143 27.778 38.9965C31.8748 37.7786 35.3591 35.5226 37.6976 32.5736C40.0361 29.6246 41.1001 26.1451 40.7267 22.6675C40.3533 19.1898 38.5631 15.9057 35.63 13.3175V13.3127ZM24.0379 8.2775C23.2082 8.16796 22.3705 8.10071 21.5301 8.07615V5.41393H26.9899L24.0379 8.2775ZM27.2882 4.22823H22.4648L25.4469 1.59797L27.2882 4.22823ZM23.9118 1.18729L20.7856 3.9374L17.6594 1.18729H23.9118ZM16.1243 1.59797L19.1064 4.22184H14.2831L16.1243 1.59797ZM14.5813 5.41393H20.0411V8.07615C19.2007 8.10035 18.3631 8.16706 17.5333 8.2759L14.5813 5.41393Z" fill="black"/>
<path d="M20.7857 11.7564C18.1456 11.7546 15.5494 12.2955 13.2471 13.3271C10.9448 14.3587 9.01394 15.8463 7.64047 17.6465C7.54924 17.7806 7.52614 17.9376 7.57595 18.085C7.62577 18.2324 7.74467 18.3588 7.90803 18.4381C8.07139 18.5174 8.2667 18.5434 8.45348 18.5109C8.64026 18.4784 8.80421 18.3897 8.91136 18.2633C10.6502 15.9793 13.3661 14.2752 16.5567 13.4662C19.7474 12.6573 23.1971 12.7981 26.2677 13.8628C29.3384 14.9274 31.8223 16.8438 33.2603 19.2576C34.6982 21.6713 34.9928 24.4192 34.0896 26.9929C33.1864 29.5667 31.1465 31.7923 28.3471 33.2581C25.5477 34.7239 22.1783 35.3308 18.8618 34.9666C15.5454 34.6024 12.5063 33.2917 10.3065 31.2768C8.10682 29.262 6.89527 26.6793 6.89595 24.0064C6.894 22.7829 7.14765 21.5678 7.64647 20.411C7.68895 20.2675 7.66314 20.1165 7.57403 19.9874C7.48493 19.8582 7.33889 19.7601 7.16429 19.7121C6.98968 19.6641 6.79897 19.6697 6.62918 19.7276C6.45939 19.7856 6.32264 19.8919 6.24549 20.0259C5.1793 22.4871 5.1203 25.1552 6.07704 27.645C7.03377 30.1347 8.95672 32.3173 11.5683 33.8777C14.1798 35.438 17.3449 36.2954 20.6064 36.3259C23.868 36.3565 27.0574 35.5587 29.7141 34.0477C32.3708 32.5368 34.3574 30.3908 35.387 27.9197C36.4167 25.4485 36.4362 22.7801 35.4426 20.2995C34.4491 17.8189 32.4939 15.6546 29.8595 14.1191C27.225 12.5835 24.0475 11.7561 20.7857 11.7564Z" fill="black"/>
</svg>
