<svg width="145" height="20" viewBox="0 0 145 20" fill="none" xmlns="http://www.w3.org/2000/svg">
<path d="M104.802 4.75912C103.761 4.73728 102.725 4.86305 101.767 5.12771C100.808 5.39236 99.949 5.78957 99.2495 6.29181L99.5214 5.39199C99.545 5.3299 99.5463 5.26512 99.5253 5.20264C99.5042 5.14017 99.4614 5.08169 99.4001 5.03172C99.3387 4.98175 99.2606 4.94163 99.1716 4.91447C99.0827 4.88731 98.9853 4.87384 98.8871 4.8751C98.665 4.88148 98.4525 4.93572 98.2829 5.02928C98.1133 5.12284 97.9963 5.25043 97.9502 5.39199L93.9569 19.0212C93.9333 19.0833 93.932 19.1481 93.9531 19.2105C93.9741 19.273 94.0169 19.3315 94.0783 19.3815C94.1396 19.4314 94.2178 19.4716 94.3067 19.4987C94.3957 19.5259 94.493 19.5394 94.5912 19.5381C94.8134 19.5319 95.0261 19.4777 95.1957 19.3841C95.3653 19.2905 95.4823 19.1628 95.5281 19.0212L97.0087 13.9472C97.4782 14.4656 98.1661 14.8854 98.9909 15.1571C99.8157 15.4287 100.743 15.5408 101.662 15.4799C103.702 15.5211 105.686 15.0426 107.192 14.1462C108.849 13.0406 109.919 11.6183 110.243 10.088C110.848 8.73719 110.609 7.28564 109.578 6.04886C109.008 5.59393 108.274 5.23779 107.441 5.01208C106.608 4.78638 105.703 4.69811 104.805 4.75512L104.802 4.75912ZM101.931 14.5481C98.5523 14.5481 97.2176 13.0164 98.0639 10.111C98.9101 7.18663 101.056 5.69493 104.409 5.69493C108.095 5.69493 109.455 7.14663 108.578 10.111C107.703 13.1554 105.588 14.5481 101.931 14.5481ZM139.218 9.54914C137.221 9.04924 135.32 8.59434 135.685 7.36059C135.866 6.74371 136.622 5.70893 139.704 5.70893C140.42 5.67044 141.139 5.75068 141.794 5.94213C142.449 6.13358 143.019 6.43 143.45 6.8037C143.506 6.84848 143.576 6.88434 143.656 6.90845C143.736 6.93256 143.823 6.94428 143.911 6.94267C144.116 6.93348 144.311 6.88242 144.469 6.79677C144.626 6.71113 144.738 6.59528 144.788 6.46577C144.82 6.34937 144.788 6.22949 144.698 6.12684V6.10685C144.149 5.64252 143.43 5.27535 142.606 5.039C141.782 4.80266 140.881 4.7047 139.984 4.75412C136.842 4.75412 134.575 5.75392 134.122 7.36059C133.547 9.29119 136.146 9.92706 138.442 10.5039C140.406 11.0038 142.282 11.4598 141.947 12.6335C141.465 14.3042 138.804 14.5431 137.264 14.5431C136.426 14.6025 135.579 14.516 134.809 14.2923C134.039 14.0687 133.374 13.7161 132.882 13.2704C132.829 13.2242 132.759 13.1872 132.679 13.1628C132.598 13.1384 132.51 13.1273 132.421 13.1304C132.217 13.1397 132.022 13.191 131.864 13.2768C131.707 13.3627 131.596 13.4787 131.546 13.6083C131.514 13.7244 131.546 13.8441 131.637 13.9462C132.245 14.4854 133.057 14.9133 133.994 15.1886C134.931 15.4639 135.961 15.5773 136.984 15.5179C140.549 15.5179 142.997 14.4441 143.51 12.6535C144.054 10.7229 141.486 10.087 139.221 9.54914H139.218ZM134.443 2.05068H132.781L133.114 0.958899C133.138 0.896812 133.139 0.832025 133.118 0.769553C133.097 0.70708 133.054 0.648596 132.993 0.598626C132.931 0.548655 132.853 0.508539 132.764 0.481381C132.675 0.454222 132.578 0.440749 132.48 0.442005C132.259 0.451321 132.049 0.506604 131.88 0.599685C131.711 0.692766 131.593 0.818707 131.543 0.958899L131.21 2.05368H129.548C129.327 2.0633 129.117 2.1187 128.949 2.21173C128.78 2.30476 128.662 2.43053 128.611 2.57057C128.587 2.63279 128.586 2.69771 128.607 2.7603C128.628 2.82289 128.671 2.88148 128.733 2.93154C128.794 2.9816 128.872 3.02179 128.962 3.049C129.051 3.07621 129.148 3.08971 129.247 3.08846H130.909L130.581 4.18224C130.558 4.24438 130.557 4.3092 130.578 4.37172C130.599 4.43424 130.641 4.49277 130.703 4.54281C130.764 4.59285 130.842 4.63306 130.931 4.66034C131.02 4.68761 131.117 4.70123 131.216 4.70013C131.437 4.69076 131.647 4.63533 131.816 4.54206C131.984 4.44878 132.103 4.32262 132.153 4.18224L132.486 3.08846H134.148C134.369 3.07893 134.579 3.02345 134.747 2.9302C134.916 2.83695 135.034 2.71087 135.085 2.57057C135.105 2.51595 135.109 2.45921 135.096 2.40362C135.083 2.34804 135.053 2.29469 135.008 2.24666C134.963 2.19863 134.904 2.15685 134.834 2.12373C134.764 2.09062 134.685 2.06681 134.601 2.05368C134.564 2.07367 134.504 2.05368 134.443 2.05368V2.05068ZM1.9181 12.6385C3.0428 13.0348 4.29509 13.253 5.57349 13.2754C6.84365 13.2754 7.50715 12.8175 7.50715 12.2806C7.50715 11.7437 7.02489 11.3808 5.6641 10.8679C4.84381 10.6304 4.13638 10.254 3.61555 9.77798C3.09473 9.30195 2.77958 8.74371 2.70294 8.16143C2.70294 6.09285 5.39225 4.62015 9.32102 4.62015C10.624 4.58166 11.9213 4.75338 13.0977 5.12005L12.0702 7.20262C11.1984 6.94103 10.2503 6.80463 9.2903 6.8027C8.02167 6.8027 7.20612 7.18063 7.20612 7.7775C7.20612 8.25541 7.779 8.59334 8.92784 8.99126C9.80254 9.23127 10.5616 9.62039 11.1252 10.1176C11.6888 10.6149 12.0359 11.2018 12.1301 11.8167C12.1301 14.1642 9.2304 15.4969 5.2187 15.4779C3.67124 15.4996 2.14384 15.247 0.799988 14.7471C0.830705 14.7471 1.9181 12.6385 1.9181 12.6385ZM13.0378 15.4009L17.3874 0.442005H21.8584L20.1382 6.23182L20.1981 6.19183C20.7527 5.71064 21.4679 5.31766 22.2897 5.04247C23.1115 4.76729 24.0185 4.61708 24.9424 4.60315C27.2693 4.60315 28.5978 5.59795 28.5978 7.24961C28.581 7.91802 28.4699 8.58401 28.266 9.23921L26.5136 15.3869H22.0411L23.7306 9.41817C23.8524 8.97733 23.9141 8.53035 23.9149 8.08244C23.9149 7.44557 23.5217 6.96767 22.5249 6.96767C21.1042 6.96767 19.5638 8.22141 18.9924 10.167L17.5118 15.3799L13.0409 15.3999L13.0378 15.4009ZM44.7936 8.71831C44.7936 12.3796 41.2288 15.4839 35.9408 15.4839C35.1058 15.5122 34.2711 15.4241 33.4926 15.2256C32.7141 15.0272 32.0096 14.7228 31.4262 14.3329C30.8428 13.943 30.3939 13.4765 30.1096 12.9647C29.8252 12.4528 29.712 11.9074 29.7773 11.3648C29.7773 7.8025 33.3421 4.60315 38.7207 4.60315C39.5499 4.57931 40.3772 4.67084 41.1477 4.87165C41.9182 5.07247 42.614 5.37793 43.1887 5.76767C43.7634 6.15741 44.2039 6.62246 44.4806 7.13179C44.7574 7.64112 44.8641 8.18301 44.7936 8.72131V8.71831ZM34.3696 11.3018C34.3696 12.3766 35.0039 13.2324 36.5444 13.2324C38.902 13.2324 40.2305 10.447 40.2305 8.63333C40.2305 7.75751 39.7175 6.86269 38.1156 6.86269C35.6997 6.84869 34.3696 9.61413 34.3696 11.3018ZM43.7384 19.5591L46.8486 8.7783C47.2278 7.48666 47.5301 6.18595 47.7547 4.8791H51.7127L51.4408 6.54975H51.5023C52.0135 6.02051 52.7095 5.57738 53.5337 5.25648C54.3579 4.93558 55.2869 4.74598 56.2451 4.70313C59.5088 4.70313 60.8389 6.43378 60.8389 8.40238C60.8389 11.9836 57.3939 15.5249 52.1366 15.5249C51.2177 15.5713 50.2993 15.4316 49.5072 15.125H49.4166L48.1786 19.5621L43.7384 19.5591ZM50.1139 12.8345C50.6263 13.1189 51.2839 13.268 51.9569 13.2524C54.465 13.2524 56.1867 10.5459 56.1867 8.63633C56.1867 7.83649 55.7628 7.00466 54.4035 7.00466C52.8323 7.00466 51.3825 8.21841 50.871 10.069L50.1139 12.8345ZM60.9894 15.4009L64.0104 4.8791H68.5136L65.4603 15.4009H60.9894ZM66.7904 3.78432C66.4886 3.77453 66.193 3.72504 65.9215 3.63883C65.6499 3.55262 65.408 3.43148 65.2103 3.28273C65.0127 3.13397 64.8634 2.96069 64.7715 2.77333C64.6795 2.58598 64.6469 2.38844 64.6755 2.19265C64.6617 1.73733 64.9231 1.29668 65.4033 0.965536C65.8836 0.634391 66.5444 0.439215 67.2435 0.422009C67.55 0.421575 67.8533 0.46216 68.1347 0.541243C68.4161 0.620327 68.6695 0.736221 68.8792 0.881729C69.0889 1.02724 69.2504 1.19926 69.3537 1.3871C69.457 1.57495 69.4999 1.77461 69.4797 1.97369C69.4935 2.20453 69.4359 2.43481 69.3102 2.65087C69.1846 2.86692 68.9936 3.06433 68.7484 3.23137C68.5033 3.3984 68.2091 3.53166 67.8833 3.62322C67.5574 3.71477 67.2067 3.76276 66.8518 3.76433C66.8518 3.78432 66.7904 3.78432 66.7904 3.78432ZM69.3584 15.4009L71.7159 7.08464H69.6302L70.2661 4.8761H72.3502L72.4716 4.33821C72.7219 3.06508 73.6398 1.88727 75.0703 1.00389C76.2993 0.33984 77.8537 -0.0149418 79.4506 0.00409485C80.2754 -0.0207251 81.099 0.0674947 81.8681 0.263042L80.9926 2.57057C80.5352 2.46826 80.0555 2.41459 79.5719 2.4116C78.0913 2.4116 77.1852 3.34641 76.9133 4.3612L76.7597 4.89909H79.873L79.2694 7.10264H76.1884L73.8308 15.4239L69.3584 15.4039V15.4009ZM85.4635 4.8791L86.1946 9.59413C86.3482 10.43 86.4665 11.2458 86.5878 12.0816H86.6477C87.0117 11.5237 87.3435 10.7079 87.9778 9.57414L90.6978 4.8751H95.3807L89.9114 12.5735C88.5018 14.7292 86.5153 16.7048 84.0444 18.4083C82.8108 19.1687 81.3044 19.7159 79.6625 20L78.4231 17.4935C79.3238 17.2914 80.178 17.0102 80.9619 16.6577C81.9692 16.193 82.8049 15.5881 83.4085 14.887C83.4694 14.8184 83.5087 14.7426 83.5242 14.664C83.5398 14.5854 83.5313 14.5056 83.4992 14.4291L80.8191 4.8591C80.7499 4.8791 85.4635 4.8791 85.4635 4.8791ZM130.787 5.87889C130.567 5.88821 130.356 5.94349 130.188 6.03657C130.019 6.12965 129.901 6.25559 129.85 6.39579L128.339 11.5687C127.523 14.1952 125.077 14.5531 122.75 14.5531C118.611 14.5531 118.489 13.0014 118.943 11.4697L120.726 5.40099C120.749 5.3389 120.751 5.27412 120.73 5.21164C120.708 5.14917 120.666 5.09069 120.604 5.04072C120.543 4.99075 120.465 4.95063 120.376 4.92347C120.287 4.89631 120.19 4.88284 120.091 4.8841C119.871 4.89325 119.66 4.94848 119.491 5.04159C119.323 5.13469 119.205 5.26072 119.154 5.40099L117.373 11.4647C116.955 12.392 117.096 13.388 117.766 14.2502C118.551 15.066 120.122 15.4839 122.48 15.4839C123.467 15.5246 124.456 15.4364 125.39 15.2246C126.324 15.0127 127.184 14.6814 127.918 14.2502C129.005 13.4741 129.71 12.504 129.942 11.4647L131.423 6.37079C131.445 6.30971 131.444 6.24623 131.422 6.18526C131.4 6.12429 131.356 6.06746 131.295 6.01915C131.234 5.97083 131.156 5.93234 131.068 5.90663C130.981 5.88093 130.885 5.8687 130.789 5.87089L130.787 5.87889ZM116.496 0.462001C116.274 0.468217 116.061 0.522391 115.891 0.615981C115.722 0.709571 115.605 0.837253 115.559 0.978895L111.509 14.8471C111.486 14.9092 111.485 14.974 111.506 15.0365C111.527 15.0989 111.57 15.1574 111.631 15.2073C111.693 15.2573 111.771 15.2974 111.86 15.3245C111.949 15.3517 112.046 15.3652 112.145 15.364C112.365 15.3544 112.575 15.2991 112.743 15.206C112.912 15.1129 113.03 14.9871 113.08 14.8471L117.13 0.978895C117.154 0.916808 117.155 0.852021 117.134 0.789548C117.113 0.727076 117.07 0.668591 117.009 0.618621C116.948 0.568651 116.869 0.528535 116.78 0.501376C116.691 0.474218 116.594 0.460745 116.496 0.462001Z" fill="black"/>
</svg>
