<svg width="72" height="32" viewBox="0 0 72 32" fill="none" xmlns="http://www.w3.org/2000/svg">
<path d="M40.3821 0C40.3731 1.16457 40.6823 2.28745 41.2429 3.12582C41.8034 3.96418 42.5702 4.45064 43.3775 4.48C43.7799 4.47818 44.178 4.35986 44.5481 4.13205C44.9183 3.90424 45.2529 3.57158 45.5323 3.15379C45.8116 2.736 46.0299 2.24159 46.1743 1.69984C46.3187 1.1581 46.3862 0.580069 46.3729 0H40.3821ZM18.6379 8.64H15.3097V31.68H18.6379V18.56C18.6379 15.52 19.8582 12.96 21.8552 12.96C23.7411 12.96 24.7396 14.88 24.7396 17.92V31.68H28.0678V18.56C28.0678 15.2 29.2881 12.96 31.2851 12.96C33.0601 12.96 34.1695 14.88 34.1695 17.92V31.68H37.4977V18.56C37.4977 15.2 37.0539 12.64 36.0555 11.04C35.5212 10.1589 34.8522 9.46897 34.1013 9.02469C33.3504 8.58041 32.5382 8.39394 31.7288 8.48C30.8167 8.44987 29.9121 8.72281 29.0849 9.27771C28.2577 9.83261 27.5301 10.6546 26.9584 11.68C26.5276 10.6392 25.9062 9.7898 25.1625 9.22525C24.4187 8.6607 23.5814 8.40283 22.7427 8.48C21.9322 8.40753 21.1231 8.65165 20.4007 9.18666C19.6783 9.72167 19.0693 10.5278 18.6379 11.52V8.64ZM59.02 20.16C58.9733 21.0956 59.063 22.035 59.2832 22.9177C59.5035 23.8003 59.8494 24.6067 60.2987 25.2849C60.7481 25.9631 61.2909 26.4981 61.8923 26.8555C62.4937 27.2129 63.1402 27.3848 63.7904 27.36C64.4379 27.3703 65.0798 27.1885 65.6765 26.8262C66.2732 26.4638 66.8119 25.9284 67.2592 25.2533C67.7065 24.5782 68.0529 23.7777 68.2768 22.9016C68.5007 22.0254 68.5974 21.0923 68.5609 20.16C68.5609 18.3353 68.0583 16.5854 67.1636 15.2951C66.269 14.0049 65.0556 13.28 63.7904 13.28C62.5253 13.28 61.3119 14.0049 60.4173 15.2951C59.5226 16.5854 59.02 18.3353 59.02 20.16ZM72 20.16C72 23.3002 71.1351 26.3117 69.5955 28.5321C68.0559 30.7526 65.9678 32 63.7904 32C61.6131 32 59.525 30.7526 57.9854 28.5321C56.4458 26.3117 55.5809 23.3002 55.5809 20.16C55.5809 17.0198 56.4458 14.0083 57.9854 11.7879C59.525 9.56742 61.6131 8.32 63.7904 8.32C65.9678 8.32 68.0559 9.56742 69.5955 11.7879C71.1351 14.0083 72 17.0198 72 20.16ZM7.43297 17.76C4.9923 16.64 4.21572 16 4.21572 14.56C4.21572 13.44 4.9923 12.48 6.1017 12.48C7.48821 12.5215 8.82162 13.2568 9.87365 14.56L11.6487 11.2C10.1297 9.2362 8.14002 8.20315 6.1017 8.32C2.7735 8.32 0.998459 11.68 0.998459 14.72C0.998459 18.88 3.77196 20.64 5.32512 21.28C8.20955 22.4 9.09707 23.2 9.09707 25.28C9.09707 26.72 8.20955 27.84 6.87827 27.84C6.05291 27.8262 5.24345 27.5107 4.52559 26.9231C3.80773 26.3355 3.20491 25.4949 2.7735 24.48L0 26.72C0.713896 28.334 1.69758 29.6633 2.86068 30.5859C4.02378 31.5085 5.32899 31.9948 6.65639 32C10.0955 32 12.4253 29.12 12.4253 24.96C12.3143 21.44 10.9831 19.36 7.43297 17.76ZM52.4746 0H49.1464V31.68H52.4746V0ZM41.7134 31.68H45.0416V8.64H41.7134V31.68Z" fill="black"/>
</svg>
