<svg width="72" height="32" viewBox="0 0 72 32" fill="none" xmlns="http://www.w3.org/2000/svg">
<path d="M2.36842 19.1045H4.42105C4.57895 19.1045 4.57895 19.1045 4.73684 19.2637C4.89474 20.6966 5.84211 21.4926 7.26316 21.6518C8.36842 21.811 9.47369 21.811 10.4211 21.3334C10.5789 21.1742 10.7368 21.1742 11.0526 21.015C11.6842 20.5374 11.6842 19.5822 11.0526 18.9453C10.4211 18.4677 9.78947 18.3085 9 18.1493C7.42105 17.8309 5.84211 17.5125 4.42105 16.8757C3.47368 16.5573 2.36842 16.0797 1.73684 15.2836C1.10526 14.6468 0.631579 13.6916 0.631579 12.7364C0.473684 11.1443 0.947368 9.71151 2.05263 8.43787C2.84211 7.64185 3.78947 7.00504 4.89474 6.68663C6.1579 6.36822 7.73684 6.36822 9.31579 6.52743C10.4211 6.68663 11.5263 6.84583 12.6316 7.48265C14.2105 8.27867 15.1579 9.71151 15.4737 11.622C15.4737 11.9404 15.4737 12.0996 15.6316 12.418C15.6316 12.5772 15.6316 12.5772 15.4737 12.5772H12.3158C11.6842 12.5772 11.2105 12.2588 10.8947 11.7812C10.2632 10.8259 9.31579 10.3483 8.21053 10.3483C7.57895 10.3483 6.78947 10.3483 6.1579 10.6667C5.52632 10.6667 5.21053 11.1443 5.21053 11.7812C5.21053 12.0996 5.36842 12.2588 5.52632 12.418C5.84211 12.7364 6.1579 12.8956 6.47368 12.8956C7.42105 13.3732 8.52632 13.5324 9.63158 13.8508C11.0526 14.1692 12.4737 14.6468 13.8947 15.2836C15.4737 16.0797 16.1053 17.1941 16.2632 18.9453C16.4211 20.5374 15.9474 21.9702 15 23.0846C14.0526 24.1991 12.9474 24.6767 11.6842 24.9951C10.1053 25.4727 8.36842 25.4727 6.78947 25.3135C5.52632 25.1543 4.42105 24.9951 3.31579 24.5175C1.42105 23.7215 0.31579 22.2886 0 20.3782V19.2637C0 19.1045 0 19.1045 0.31579 19.1045H2.36842Z" fill="black"/>
<path d="M28.1053 16.0796C28.1053 15.2836 28.1053 14.4876 27.9474 13.8507C27.7895 12.8955 27.3158 11.9403 26.6842 11.3035C24.7895 9.55224 21.7895 10.3483 20.8421 12.8955C20.5263 13.6915 20.3684 14.4876 20.3684 15.4428C20.3684 16.7164 20.3684 17.8308 20.8421 19.1045C21.4737 20.8557 23.2105 21.8109 25.1053 21.4925C26.3684 21.3333 27.1579 20.3781 27.6316 19.4229C28.1053 18.1493 28.1053 17.0348 28.1053 16.0796ZM15.6316 13.5323C15.7895 13.0547 15.7895 12.5771 15.9474 12.0995C16.4211 10.1891 17.3684 8.59702 19.1053 7.801C20.6842 7.00498 22.2632 6.52736 24 6.52736C26.0526 6.36816 27.7895 6.84577 29.5263 7.801C30.4737 8.43781 31.1053 9.23383 31.7369 10.1891C32.524 11.7261 32.9865 13.4109 33.0952 15.1372C33.2039 16.8636 32.9564 18.5939 32.3684 20.2189C31.8948 21.8109 30.9474 23.2438 29.5263 24.199C28.4765 24.9938 27.2071 25.439 25.8947 25.4726C25.1053 25.4726 24.3158 25.4726 23.5263 25.1542C22.2632 24.8358 21.3158 24.0398 20.6842 23.0846C20.6842 22.9254 20.5263 22.9254 20.5263 22.9254V29.6119C20.5263 30.7264 19.7369 31.8408 18.4737 32H15.7895C15.6316 31.8408 15.6316 13.5323 15.6316 13.5323ZM35.3684 0C35.5263 0.159204 35.8421 0.159204 36 0.318408C36.7895 0.79602 37.2632 1.43284 37.2632 2.38806V5.25373C37.2632 5.57214 37.2632 5.57214 36.9474 5.57214H32.8421C32.3684 5.57214 32.5263 5.57214 32.5263 5.25373V0.159204L35.3684 0Z" fill="black"/>
<path d="M35.3684 7.00502C35.5263 7.16423 35.8421 7.16423 36 7.32343C36.7895 7.80104 37.2631 8.43786 37.2631 9.39308V24.9951C37.2631 25.3135 37.2631 25.3135 36.9474 25.3135H32.8421C32.3684 25.3135 32.5263 25.3135 32.5263 24.9951V7.32343L35.3684 7.00502ZM49.7368 19.1045V13.5324C49.7368 13.0548 49.7368 12.5772 49.421 12.0995C49.1052 11.1443 48.3158 10.6667 47.3684 10.5075C46.2631 10.1891 45.3158 10.5075 44.3684 11.1443C43.7368 11.6219 43.5789 12.0995 43.421 12.8956V22.7662C43.421 23.8806 42.4737 25.1543 41.0526 25.1543H38.8421C38.6842 25.1543 38.5263 25.1543 38.5263 24.8359V14.1692C38.5263 12.8956 38.6842 11.6219 39.1579 10.3483C39.6316 9.23388 40.2631 8.27865 41.3684 7.80104C42.6316 7.16423 44.0526 6.68661 45.6316 6.52741C47.8421 6.36821 49.8947 6.84582 51.9474 7.96025C53.2105 8.75627 53.8421 9.87069 54.3158 11.3035C54.6316 12.2588 54.6316 13.3732 54.6316 14.3284V24.6767C54.6316 24.9951 54.6316 24.9951 54.3158 24.9951H50.0526C49.8947 24.9951 49.7368 24.9951 49.7368 24.6767V19.1045ZM60.9474 19.1045V13.5324C60.9474 13.0548 60.9474 12.5772 61.2631 12.0995C61.5789 11.1443 62.2105 10.6667 63.1579 10.5075C64.2631 10.1891 65.2105 10.5075 66.1579 11.1443C66.7895 11.6219 66.9474 12.0995 67.1053 12.8956V22.7662C67.1053 23.8806 68.0526 25.1543 69.4737 25.1543H71.6842C71.8421 25.1543 72 25.1543 72 24.8359V14.1692C72 12.8956 71.8421 11.6219 71.3684 10.3483C70.8947 9.23388 70.2631 8.27865 69.1579 7.80104C67.8947 7.16423 66.4737 6.68661 64.8947 6.52741C62.6842 6.36821 60.6316 6.84582 58.5789 7.96025C57.3158 8.75627 56.6842 9.87069 56.2105 11.3035C55.8947 12.2588 55.8947 13.3732 55.8947 14.3284V24.6767C55.8947 24.9951 55.8947 24.9951 56.2105 24.9951H60.4737C60.6316 24.9951 60.7895 24.9951 60.7895 24.6767C60.9474 22.9254 60.9474 21.015 60.9474 19.1045Z" fill="black"/>
</svg>
